<svg width="247" height="415" viewBox="0 0 247 415" fill="none" xmlns="http://www.w3.org/2000/svg">
    <path fill-rule="evenodd" clip-rule="evenodd"
          d="M108.789 0.702552C142.809 -2.45745 174.139 5.04255 202.789 23.2026C210.019 28.4726 216.349 34.6426 221.789 41.7026C208.469 54.1926 194.969 66.5226 181.289 78.7026C158.089 54.3626 130.589 47.8626 98.7885 59.2026C75.6785 71.0626 64.3485 90.0626 64.7885 116.203C64.4185 137.963 72.7585 155.463 89.7885 168.703C69.5385 175.993 50.5385 185.663 32.7885 197.703C13.3885 178.893 2.55852 155.893 0.288523 128.703C-3.02148 70.4525 22.1485 30.2926 75.7885 8.20255C86.7085 4.72255 97.7085 2.22255 108.789 0.702552Z"
          fill="#6464AF"/>
    <path fill-rule="evenodd" clip-rule="evenodd"
          d="M114.789 94.7026C158.119 94.7026 201.459 94.7026 244.789 94.7026C250.259 134.453 240.089 169.453 214.289 199.703C198.279 215.793 179.109 226.293 156.789 231.203C144.059 232.833 131.399 234.833 118.789 237.203C87.3489 245.543 71.3489 266.043 70.7889 298.703C74.8089 342.553 98.8089 363.383 142.789 361.203C150.719 360.223 158.379 358.223 165.789 355.203C166.779 345.453 167.109 335.623 166.789 325.703C148.789 325.703 130.789 325.703 112.789 325.703C112.789 309.033 112.789 292.373 112.789 275.703C149.789 275.703 186.789 275.703 223.789 275.703C223.959 312.703 223.789 349.703 223.289 386.703C184.169 411.923 141.669 420.093 95.7889 411.203C47.9289 399.013 18.7589 368.843 8.28887 320.703C0.688867 252.683 29.1889 207.853 93.7889 186.203C111.319 182.033 128.989 178.703 146.789 176.203C160.179 169.813 169.849 159.813 175.789 146.203C155.459 145.703 135.129 145.533 114.789 145.703C114.789 128.703 114.789 111.703 114.789 94.7026Z"
          fill="#6464AF"/>
</svg>
