<svg xmlns="http://www.w3.org/2000/svg" width="980" height="428" fill="none">
    <path fill="#E63D4C" fill-opacity="0.7" fill-rule="evenodd"
          d="M281.048.633c12.426-1.936 23.762.567 33.988 7.508 10.307 11.679 11.466 24.191 3.499 37.536-9.027 10.69-20.523 14.865-34.488 12.512-21.952-4.424-30.449-17.6-25.491-39.538Q265.499 4.065 281.048.633"
          clip-rule="evenodd"/>
    <path fill="#ece1e0" fill-opacity="0.7" fill-rule="evenodd"
          d="M115.107 12.645c34.848-2.293 66.167 6.882 93.967 27.527a246 246 0 0 1 12.995 13.513 659 659 0 0 1-40.485 37.036c-22.942-23.813-50.102-30.32-81.471-19.519-19.413 9.099-30.91 24.284-34.488 45.545-4.198 26.425 3.969 47.946 24.491 64.563a256 256 0 0 0-53.98 27.026c-1.54 1.191-3.21 1.521-4.999 1.001C3.277 177.316-5.889 140.45 3.647 98.729c13.365-44.744 42.855-72.268 88.469-82.58a387 387 0 0 1 22.991-3.504"
          clip-rule="evenodd"/>
    <path fill="#ece1e0" fill-opacity="0.7" fill-rule="evenodd"
          d="M698.9 43.675h54.98V77.71h34.988v41.039H753.88c-.17 18.358 0 36.706.5 55.054 4.179 11.862 12.336 15.705 24.491 11.511 2.33-1.171 4.669-2.332 6.998-3.503a505 505 0 0 1 13.995 37.537c-3.509 3.593-7.847 5.935-12.995 7.006-18.854 4.815-37.517 4.144-55.98-2.002q-30.065-13.377-31.489-46.545c-.5-19.679-.67-39.368-.5-59.058h-21.992v-41.04H698.9zM588.939 69.7c21.053-1.45 41.715.721 61.978 6.507a104 104 0 0 1 12.995 5.505c1.11 1.221 1.28 2.563.5 4.004a750 750 0 0 0-14.495 34.033 211 211 0 0 0-28.989-9.509c-11.426-2.292-22.762-1.952-33.988 1.001q-13.81 7.823 0 15.015a737 737 0 0 1 56.979 12.011c20.033 8.589 28.87 23.774 26.491 45.545-4.538 21.231-17.374 34.744-38.486 40.539-32.109 7.818-63.768 6.156-94.966-5.004-4.259-1.622-7.928-3.954-10.997-7.007 4.029-9.9 8.198-19.74 12.496-29.529 1.02-2.713 2.519-5.045 4.498-7.007 21.263 11.832 43.915 16.006 67.976 12.512 6.398-1.301 8.897-5.145 7.498-11.511a11.4 11.4 0 0 0-4.499-3.503 2130 2130 0 0 0-48.982-9.009c-30.73-8.629-41.886-28.488-33.489-59.558q12.716-25.225 40.486-31.531a256 256 0 0 1 16.994-3.503M878.836 69.7c33.878-3.993 62.367 6.357 85.469 31.031 14.805 21.291 19.133 44.653 12.996 70.068-8.807 27.497-26.961 45.685-54.481 54.553-31.549 8.719-60.868 4.044-87.969-14.013-23.252-19.79-32.748-44.984-28.49-75.574 6.308-32.682 25.471-53.532 57.48-62.56a236 236 0 0 1 14.995-3.504m5.997 44.044c25.361-1.802 38.687 10.039 39.986 35.534q-1.229 35.27-35.987 36.035c-19.013-4.364-28.34-16.376-27.99-36.035-.27-17.697 7.727-29.539 23.991-35.534M263.055 71.703h54.98v155.151h-54.98zM341.027 71.703h54.981q-.675 46.097 1.499 92.089c3.069 12.142 10.896 18.478 23.492 19.019 13.445-1.291 22.272-8.298 26.49-21.021a1394 1394 0 0 0 1.5-90.087h54.98v155.151h-51.981c.17-5.015 0-10.02-.5-15.015q-18.728 18.108-44.984 18.018c-39.606-1.301-61.268-21.651-64.977-61.06-.5-32.361-.67-64.723-.5-97.094"
          clip-rule="evenodd"/>
    <path fill="#ece1e0" fill-opacity="0.7" fill-rule="evenodd"
          d="M115.108 106.737h129.953c5.039 37.546-3.788 71.249-26.49 101.098-15.035 16.386-33.198 27.898-54.481 34.534a784 784 0 0 0-50.982 9.009c-27.36 10.2-41.355 30.049-41.985 59.558 2.25 39.558 23.082 60.909 62.478 64.062 11.606-.32 22.602-2.993 32.988-8.007.5-9.67.67-19.349.5-29.029h-53.981v-50.049h110.961c.17 37.037 0 74.073-.5 111.109-19.963 14.124-42.125 22.962-66.476 26.526-40.866 7.207-77.853-1.472-110.96-26.026C11.533 366.64-.292 326.771 10.644 279.906c12.865-41.241 40.025-68.097 81.47-80.579a218 218 0 0 1 19.994-5.005 466 466 0 0 0 33.988-5.005q20.992-9.008 29.989-30.029a1847 1847 0 0 0-60.978-.5z"
          clip-rule="evenodd"/>
    <path fill="#ece1e0" fill-opacity="0.7" fill-rule="evenodd"
          d="M620.927 240.868h54.981v34.033h34.987v41.04h-34.987c-.17 18.688 0 37.376.5 56.054q3.493 11.006 14.994 12.012c6.098-.981 11.936-2.652 17.494-5.005a641 641 0 0 0 12.995 38.037c-11.865 6.847-24.701 9.85-38.486 9.009-22.212 1.832-40.206-5.846-53.981-23.022a59.4 59.4 0 0 1-6.997-18.018 846 846 0 0 1-1.5-69.067h-22.991v-41.04h22.991zM508.967 266.893c22.842-1.882 45.164.621 66.976 7.507 4.139 1.241 7.808 3.243 10.996 6.006a491 491 0 0 1-16.993 36.536c-18.584-9.89-38.247-13.053-58.98-9.51-6.397 1.382-9.226 5.216-8.496 11.512a11.4 11.4 0 0 0 4.498 3.503 1108 1108 0 0 1 58.979 13.013c21.232 9.319 29.729 25.505 25.491 48.547-2.309 10.801-7.807 19.639-16.494 26.526q-18.894 13.153-41.985 15.015c-22.042 2.052-43.705.05-64.977-6.006-7.498-2.112-14.495-5.275-20.993-9.51a472 472 0 0 1 17.494-37.036c22.932 12.703 47.093 16.206 72.474 10.511 5.578-4.845 5.248-9.189-.999-13.013a588 588 0 0 0-43.985-8.008c-33.258-6.066-46.413-25.585-39.486-58.557 6.198-14.554 16.694-24.724 31.489-30.53 8.257-2.983 16.584-5.155 24.991-6.506M798.864 266.893c24.182-2.913 46.833 1.592 67.976 13.513 29.08 21.411 39.916 49.939 32.488 85.584-8.027 29.058-26.52 47.916-55.48 56.555-29.259 7.737-56.92 4.074-82.97-11.011-27.031-20.11-37.857-46.976-32.489-80.579 5.098-24.453 18.594-42.641 40.486-54.553 9.766-4.314 19.763-7.487 29.989-9.509m12.996 43.042c22.791 1.411 34.117 13.593 33.987 36.536-.239 21.42-10.896 33.592-31.988 36.535-20.703-3.213-31.029-15.395-30.989-36.535-.4-20.47 9.267-32.652 28.99-36.536M263.055 268.895h54.98c-.17 29.699 0 59.398.5 89.087 3.868 16.866 14.365 23.703 31.489 20.52 12.695-4.194 19.523-13.043 20.492-26.526.5-27.687.67-55.384.5-83.081h54.981v155.151h-51.982c.17-5.015 0-10.02-.5-15.014-16.404 14.584-35.567 20.089-57.479 16.516q-47.279-7.807-52.482-55.555c-.499-33.702-.669-67.395-.499-101.098"
          clip-rule="evenodd"/>
</svg>