<svg xmlns="http://www.w3.org/2000/svg" width="980" height="428" fill="none">
    <path fill="#f9443d" fill-rule="evenodd"
          d="M283.789.217c10.42-.95 20.09 1.216 29 6.5q21.84 22.385 0 45-15.21 9.3-33 6c-22.26-8.02-28.42-22.858-18.5-44.5q8.805-11.02 22.5-13"
          clip-rule="evenodd"/>
    <path fill="#ece1e0" fill-rule="evenodd"
          d="M108.789 13.217c34.08-3.356 65.41 4.144 94 22.5 7.48 4.98 13.81 11.15 19 18.5a2127 2127 0 0 1-40.5 37c-20.3-22.21-45.14-29.71-74.5-22.5-28.29 10.14-42.29 30.3-42 60.5-.21 21.57 8.12 38.9 25 52-20.27 7.3-39.27 16.97-57 29-19.4-18.81-30.23-41.81-32.5-69-3.31-58.25 21.86-98.41 75.5-120.5q16.38-5.22 33-7.5M698.789 44.217h55v34h35v41h-35c-.46 19.4.04 38.73 1.5 58 1.5 4.17 4.33 7 8.5 8.5 7.6 1.37 14.77.2 21.5-3.5 5.59 12.09 10.42 24.59 14.5 37.5-4.39 3.47-9.39 5.8-15 7-17.85 3.82-35.52 3.15-53-2-20.3-8.72-31.13-24.22-32.5-46.5-.5-19.66-.67-39.33-.5-59h-22v-41h22zM595.789 69.217c20.16-.48 39.82 2.36 59 8.5 3.36 1.12 6.52 2.62 9.5 4.5.32 2.05-.01 4.05-1 6a379 379 0 0 1-15.5 32c-19.53-10.98-40.2-13.81-62-8.5-7.76 4.8-7.76 9.46 0 14 17.68 3.56 35.35 7.22 53 11q42 15.39 28.5 58.5c-8.81 16.11-22.31 26.28-40.5 30.5-29.1 5.84-57.77 4.17-86-5-5.69-1.84-10.69-4.67-15-8.5a464 464 0 0 1 16.5-37c22.74 13.21 46.9 17.04 72.5 11.5 6.74-6.14 5.74-10.81-3-14-14.98-2.76-29.98-5.43-45-8-31.87-7.87-43.7-27.7-35.5-59.5 7.21-15.54 19.04-25.71 35.5-30.5 9.64-2.72 19.31-4.55 29-5.5M884.789 69.217c30.43-2.19 56.26 7.48 77.5 29 18.51 25.09 22.51 52.42 12 82-12.43 26.75-33.26 42.58-62.5 47.5-28.99 5.07-55.32-.93-79-18q-35.265-32.28-25.5-79.5c7.96-28.63 26.13-47.46 54.5-56.5 7.72-1.95 15.39-3.45 23-4.5m3 44c23.2.37 35.54 12.2 37 35.5.07 13.18-4.93 23.85-15 32-17.18 8.54-31.68 5.37-43.5-9.5-7.33-14.65-7.33-29.32 0-44 5.53-7.34 12.7-12 21.5-14M262.789 72.217h55v155h-55zM340.789 72.217h55c-.46 30.38.04 60.71 1.5 91 5.27 16.72 16.44 22.56 33.5 17.5 8.32-3.65 13.82-9.82 16.5-18.5q2.19-44.94 1.5-90h55v155h-52c.17-5.01 0-10.01-.5-15-19.5 16.23-41.66 21.06-66.5 14.5-27.39-9.23-41.89-28.39-43.5-57.5-.5-32.33-.67-64.66-.5-97"
          clip-rule="evenodd"/>
    <path fill="#ece1e0" fill-rule="evenodd"
          d="M114.789 107.217h130c5.47 39.75-4.7 74.75-30.5 105-16.01 16.09-35.18 26.59-57.5 31.5a435 435 0 0 0-38 6q-47.145 12.495-48 61.5c4.01 43.84 28.01 64.68 72 62.5 8.04-.85 15.71-3.02 23-6.5 1-9.64 1.33-19.31 1-29h-54v-50h111c.17 37 0 74-.5 111-39.12 25.22-81.62 33.39-127.5 24.5-47.87-12.2-77.03-42.37-87.5-90.5-7.51-69.51 21.99-114.68 88.5-135.5 16.61-3.49 33.27-6.49 50-9 13.39-6.39 23.06-16.39 29-30-20.33-.5-40.66-.67-61-.5zM620.789 240.217h55v34h35v42h-35c-.46 19.73.04 39.4 1.5 59 4.96 7.21 11.8 9.71 20.5 7.5 3.56-.74 6.73-2.24 9.5-4.5 5.02 12.74 9.86 25.57 14.5 38.5-11.91 6.69-24.74 9.85-38.5 9.5-17.26.58-32.76-4.26-46.5-14.5-8.99-8.94-14.16-19.78-15.5-32.5-.5-21-.67-42-.5-63h-23v-42h23zM513.789 266.217c21.55-1.11 42.55 1.72 63 8.5 3.82 1.07 7.15 2.91 10 5.5a939 939 0 0 1-17 37c-18.83-10.64-38.83-13.8-60-9.5-6.78 2.04-8.95 6.21-6.5 12.5 1.42.96 2.92 1.79 4.5 2.5 15.27 3.28 30.6 6.28 46 9 32.2 7.56 44.03 27.39 35.5 59.5-5.96 13.29-15.79 22.46-29.5 27.5q-51.435 15.915-102-3a88.5 88.5 0 0 1-11-6 890 890 0 0 1 17-37.5c23.32 13.55 47.98 17.05 74 10.5 4.24-4.43 3.91-8.43-1-12-14.16-3.5-28.49-6.17-43-8-15.41-1.78-27.91-8.62-37.5-20.5-13.01-31.3-4.18-54.13 26.5-68.5 10.12-3.95 20.45-6.45 31-7.5M803.789 266.217c27.25-2.28 51.58 4.89 73 21.5 20.44 20.33 28.28 44.83 23.5 73.5-8.12 33.45-28.95 54.29-62.5 62.5-30.28 6.46-57.95.79-83-17-22.95-20.51-31.78-46.01-26.5-76.5 6.64-30.31 24.81-50.15 54.5-59.5q10.605-2.775 21-4.5m4 44q30.66-2.805 37.5 27c1.75 10.93.09 21.26-5 31-12.38 15.13-27.21 17.96-44.5 8.5-11.68-11.01-15.85-24.51-12.5-40.5 3.25-13.41 11.42-22.08 24.5-26M262.789 269.217h55q-.69 46.56 1.5 93c6.07 14.71 16.9 19.87 32.5 15.5 9.21-3.89 15.04-10.72 17.5-20.5 1.46-29.29 1.96-58.62 1.5-88h55v154h-52c.17-5.01 0-10.01-.5-15q-26.34 23.775-61.5 16.5c-29.27-6.94-45.44-25.44-48.5-55.5-.5-33.33-.67-66.67-.5-100"
          clip-rule="evenodd"/>
</svg>