<svg width="247" height="416" viewBox="0 0 247 416" fill="none" xmlns="http://www.w3.org/2000/svg">
    <path fill-rule="evenodd" clip-rule="evenodd"
          d="M115.253 0.343588C150.113 -1.94741 181.443 7.21859 209.253 27.8436C213.773 32.1916 218.103 36.6916 222.253 41.3436C209.253 54.2536 195.753 66.5836 181.753 78.3436C158.803 54.5536 131.633 48.0536 100.253 58.8436C80.8328 67.9336 69.3328 83.1036 65.7528 104.344C61.5428 130.744 69.7128 152.244 90.2528 168.844C71.1728 175.724 53.1728 184.724 36.2528 195.844C34.7128 197.034 33.0428 197.364 31.2528 196.844C3.19277 164.934 -5.96723 128.104 3.75277 86.3436C15.8828 44.8836 42.7128 18.0456 84.2528 5.84359C94.5928 3.20459 104.923 1.37159 115.253 0.343588Z"
          fill="#ECE1E0"/>
    <path fill-rule="evenodd" clip-rule="evenodd"
          d="M115.253 94.3435C158.583 94.3435 201.923 94.3435 245.253 94.3435C250.293 131.854 241.463 165.524 218.753 195.344C203.713 211.714 185.543 223.214 164.253 229.844C147.153 232.284 130.153 235.284 113.253 238.844C85.7329 249.164 71.7329 269.164 71.2529 298.844C73.6129 338.204 94.4429 359.374 133.753 362.344C145.363 362.024 156.363 359.354 166.753 354.344C167.253 344.684 167.423 335.014 167.253 325.344C149.253 325.344 131.253 325.344 113.253 325.344C113.253 308.674 113.253 292.014 113.253 275.344C150.253 275.344 187.253 275.344 224.253 275.344C224.423 312.344 224.253 349.344 223.753 386.344C205.573 399.344 185.403 407.844 163.253 411.844C127.863 419.204 94.1929 414.534 62.2529 397.844C18.7729 369.364 0.942922 329.204 8.75292 277.344C16.8029 237.634 39.3029 209.464 76.2529 192.844C97.3929 184.144 119.393 179.144 142.253 177.844C158.673 172.914 169.673 162.414 175.253 146.344C155.253 146.344 135.253 146.344 115.253 146.344C115.253 129.014 115.253 111.674 115.253 94.3435Z"
          fill="#ECE1E0"/>
</svg>
